<svg width="212" height="20" viewBox="0 0 212 20" fill="none" xmlns="http://www.w3.org/2000/svg">
<path d="M49.3575 9H45.7696V1.08301H49.6153C50.5857 1.09733 51.2732 1.37842 51.6778 1.92627C51.9213 2.26286 52.0431 2.66569 52.0431 3.13477C52.0431 3.61816 51.9213 4.00667 51.6778 4.30029C51.5418 4.46501 51.3412 4.6154 51.0763 4.75146C51.4809 4.89827 51.7853 5.13102 51.9894 5.44971C52.197 5.76839 52.3009 6.15511 52.3009 6.60986C52.3009 7.07894 52.1827 7.49967 51.9464 7.87207C51.796 8.11914 51.608 8.32682 51.3824 8.49512C51.1282 8.68848 50.8274 8.82096 50.4801 8.89258C50.1363 8.96419 49.7621 9 49.3575 9ZM49.3199 5.51416H47.3487V7.625H49.2931C49.6404 7.625 49.9107 7.57845 50.1041 7.48535C50.455 7.31348 50.6305 6.98405 50.6305 6.49707C50.6305 6.08529 50.4604 5.80241 50.1202 5.64844C49.9304 5.5625 49.6637 5.51774 49.3199 5.51416ZM50.1417 4.00488C50.3565 3.87598 50.464 3.64502 50.464 3.31201C50.464 2.9432 50.3207 2.69971 50.0343 2.58154C49.7872 2.49919 49.4721 2.45801 49.089 2.45801H47.3487V4.20361H49.2931C49.6404 4.20361 49.9233 4.13737 50.1417 4.00488ZM59.5336 1.08301L56.8856 6.02441V9H55.2313V6.02441L52.4921 1.08301H54.4418L56.0854 4.53125L57.6591 1.08301H59.5336ZM67.7578 5.54102H63.9121V7.57666H68.2949V9H62.2954V1.08301H68.1016V2.48486H63.9121V4.16602H67.7578V5.54102ZM75.4363 9H73.782L70.5486 3.37646V9H69.0071V1.08301H70.742L73.8948 6.60986V1.08301H75.4363V9ZM82.1856 1.08301V2.48486H79.817V9H78.152V2.48486H75.7726V1.08301H82.1856ZM88.1186 5.54102H84.2729V7.57666H88.6557V9H82.6562V1.08301H88.4623V2.48486H84.2729V4.16602H88.1186V5.54102ZM92.757 5.89551H91.049V9H89.4323V1.08301H93.3156C93.8706 1.09375 94.2967 1.16178 94.5939 1.28711C94.8947 1.41243 95.149 1.59684 95.3566 1.84033C95.5285 2.04085 95.6646 2.26286 95.7648 2.50635C95.8651 2.74984 95.9152 3.02734 95.9152 3.33887C95.9152 3.71484 95.8203 4.08545 95.6306 4.45068C95.4408 4.81234 95.1275 5.06836 94.6906 5.21875C95.0559 5.36556 95.3137 5.57503 95.4641 5.84717C95.618 6.11572 95.695 6.52751 95.695 7.08252V7.61426C95.695 7.97591 95.7093 8.22119 95.738 8.3501C95.781 8.5542 95.8812 8.70459 96.0388 8.80127V9H94.218C94.1678 8.82454 94.132 8.68311 94.1105 8.57568C94.0676 8.35368 94.0443 8.1263 94.0407 7.89355L94.03 7.15771C94.0228 6.65283 93.9297 6.31624 93.7507 6.14795C93.5752 5.97965 93.244 5.89551 92.757 5.89551ZM93.7614 4.45605C94.0909 4.30566 94.2556 4.00846 94.2556 3.56445C94.2556 3.08464 94.0962 2.76237 93.7775 2.59766C93.5985 2.50456 93.33 2.45801 92.9719 2.45801H91.049V4.58496H92.9235C93.2959 4.58496 93.5752 4.54199 93.7614 4.45605ZM96.665 1.08301H98.3086V9H96.665V1.08301ZM105.708 9H104.054L100.82 3.37646V9H99.2786V1.08301H101.013L104.166 6.60986V1.08301H105.708V9ZM111.56 8.80664C111.123 9.0752 110.586 9.20947 109.949 9.20947C108.9 9.20947 108.04 8.84603 107.371 8.11914C106.672 7.38867 106.323 6.38965 106.323 5.12207C106.323 3.84017 106.676 2.8125 107.381 2.03906C108.087 1.26562 109.02 0.878906 110.18 0.878906C111.186 0.878906 111.993 1.13493 112.602 1.64697C113.214 2.15544 113.565 2.79102 113.655 3.55371H112.027C111.902 3.01302 111.596 2.63525 111.109 2.42041C110.837 2.30225 110.534 2.24316 110.201 2.24316C109.564 2.24316 109.039 2.48486 108.628 2.96826C108.219 3.44808 108.015 4.17139 108.015 5.13818C108.015 6.11214 108.237 6.80143 108.681 7.20605C109.125 7.61068 109.63 7.81299 110.196 7.81299C110.751 7.81299 111.206 7.65365 111.56 7.33496C111.915 7.0127 112.133 6.59196 112.215 6.07275H110.384V4.75146H113.682V9H112.586L112.42 8.01172C112.101 8.3877 111.814 8.65267 111.56 8.80664ZM122.98 1.08301V2.48486H120.612V9H118.946V2.48486H116.567V1.08301H122.98ZM128.124 9V5.46582H125.03V9H123.392V1.08301H125.03V4.10156H128.124V1.08301H129.767V9H128.124ZM130.673 1.08301H132.316V9H130.673V1.08301ZM136.187 7.85596C136.577 7.85596 136.894 7.81299 137.137 7.72705C137.599 7.56234 137.83 7.25618 137.83 6.80859C137.83 6.5472 137.716 6.34489 137.486 6.20166C137.257 6.06201 136.897 5.93848 136.407 5.83105L135.569 5.64307C134.745 5.45687 134.176 5.25456 133.861 5.03613C133.327 4.6709 133.061 4.09977 133.061 3.32275C133.061 2.61377 133.318 2.02474 133.834 1.55566C134.35 1.08659 135.107 0.852051 136.106 0.852051C136.94 0.852051 137.651 1.07406 138.238 1.51807C138.829 1.9585 139.139 2.59945 139.168 3.44092H137.578C137.549 2.96468 137.341 2.6263 136.955 2.42578C136.697 2.29329 136.376 2.22705 135.993 2.22705C135.567 2.22705 135.227 2.31299 134.973 2.48486C134.719 2.65674 134.591 2.89665 134.591 3.20459C134.591 3.48747 134.717 3.69873 134.967 3.83838C135.129 3.93148 135.472 4.04069 135.999 4.16602L137.363 4.49365C137.961 4.63688 138.412 4.82845 138.716 5.06836C139.189 5.44076 139.425 5.97965 139.425 6.68506C139.425 7.40837 139.148 8.00993 138.593 8.48975C138.041 8.96598 137.261 9.2041 136.251 9.2041C135.22 9.2041 134.409 8.96956 133.818 8.50049C133.227 8.02783 132.932 7.37972 132.932 6.55615H134.511C134.561 6.91781 134.659 7.18815 134.806 7.36719C135.075 7.69303 135.535 7.85596 136.187 7.85596ZM145.485 7.85596C145.875 7.85596 146.192 7.81299 146.436 7.72705C146.898 7.56234 147.129 7.25618 147.129 6.80859C147.129 6.5472 147.014 6.34489 146.785 6.20166C146.556 6.06201 146.196 5.93848 145.705 5.83105L144.867 5.64307C144.044 5.45687 143.474 5.25456 143.159 5.03613C142.626 4.6709 142.359 4.09977 142.359 3.32275C142.359 2.61377 142.617 2.02474 143.133 1.55566C143.648 1.08659 144.405 0.852051 145.404 0.852051C146.239 0.852051 146.95 1.07406 147.537 1.51807C148.128 1.9585 148.437 2.59945 148.466 3.44092H146.876C146.848 2.96468 146.64 2.6263 146.253 2.42578C145.995 2.29329 145.675 2.22705 145.292 2.22705C144.866 2.22705 144.525 2.31299 144.271 2.48486C144.017 2.65674 143.89 2.89665 143.89 3.20459C143.89 3.48747 144.015 3.69873 144.266 3.83838C144.427 3.93148 144.771 4.04069 145.297 4.16602L146.661 4.49365C147.259 4.63688 147.71 4.82845 148.015 5.06836C148.488 5.44076 148.724 5.97965 148.724 6.68506C148.724 7.40837 148.446 8.00993 147.891 8.48975C147.34 8.96598 146.559 9.2041 145.55 9.2041C144.518 9.2041 143.707 8.96956 143.116 8.50049C142.526 8.02783 142.23 7.37972 142.23 6.55615H143.809C143.859 6.91781 143.958 7.18815 144.105 7.36719C144.373 7.69303 144.833 7.85596 145.485 7.85596ZM149.27 1.08301H150.913V9H149.27V1.08301ZM157.662 1.08301V2.48486H155.294V9H153.629V2.48486H151.249V1.08301H157.662ZM163.595 5.54102H159.75V7.57666H164.132V9H158.133V1.08301H163.939V2.48486H159.75V4.16602H163.595V5.54102ZM166.225 9.54785C166.161 9.81283 166.041 10.042 165.865 10.2354C165.675 10.443 165.452 10.5988 165.194 10.7026C164.94 10.8101 164.764 10.8638 164.667 10.8638V10.2729C164.975 10.187 165.201 10.0438 165.344 9.84326C165.491 9.64274 165.575 9.36165 165.597 9H164.667V7.39941H166.322V8.78516C166.322 9.02865 166.289 9.28288 166.225 9.54785ZM7.39639 11.083L4.74844 16.0244V19H3.09414V16.0244L0.354881 11.083H2.30459L3.94814 14.5312L5.52187 11.083H7.39639ZM11.2937 19.2202C10.1621 19.2202 9.29739 18.9123 8.69941 18.2964C7.89733 17.5409 7.49629 16.4523 7.49629 15.0308C7.49629 13.5806 7.89733 12.492 8.69941 11.7651C9.29739 11.1493 10.1621 10.8413 11.2937 10.8413C12.4252 10.8413 13.2899 11.1493 13.8879 11.7651C14.6864 12.492 15.0856 13.5806 15.0856 15.0308C15.0856 16.4523 14.6864 17.5409 13.8879 18.2964C13.2899 18.9123 12.4252 19.2202 11.2937 19.2202ZM12.8566 17.0933C13.2398 16.6099 13.4313 15.9224 13.4313 15.0308C13.4313 14.1427 13.238 13.457 12.8513 12.9736C12.4681 12.4867 11.9489 12.2432 11.2937 12.2432C10.6384 12.2432 10.1156 12.4849 9.72529 12.9683C9.33499 13.4517 9.13984 14.1392 9.13984 15.0308C9.13984 15.9224 9.33499 16.6099 9.72529 17.0933C10.1156 17.5767 10.6384 17.8184 11.2937 17.8184C11.9489 17.8184 12.4699 17.5767 12.8566 17.0933ZM20.4868 15.9492V11.083H22.168V15.9492C22.168 16.7907 22.0373 17.446 21.7759 17.915C21.2889 18.7744 20.3597 19.2041 18.9883 19.2041C17.6169 19.2041 16.6859 18.7744 16.1953 17.915C15.9339 17.446 15.8032 16.7907 15.8032 15.9492V11.083H17.4844V15.9492C17.4844 16.4935 17.5488 16.891 17.6777 17.1416C17.8783 17.5856 18.3151 17.8076 18.9883 17.8076C19.6579 17.8076 20.0929 17.5856 20.2935 17.1416C20.4224 16.891 20.4868 16.4935 20.4868 15.9492ZM29.941 17.3726H27.0245L26.4767 19H24.7472L27.5724 11.083H29.4415L32.2452 19H30.4513L29.941 17.3726ZM29.4791 16.0083L28.4908 12.8931L27.4703 16.0083H29.4791ZM37.5604 18.8066C37.1236 19.0752 36.5865 19.2095 35.9491 19.2095C34.9 19.2095 34.0406 18.846 33.371 18.1191C32.6728 17.3887 32.3236 16.3896 32.3236 15.1221C32.3236 13.8402 32.6763 12.8125 33.3817 12.0391C34.0871 11.2656 35.0199 10.8789 36.1801 10.8789C37.1863 10.8789 37.9937 11.1349 38.6024 11.647C39.2147 12.1554 39.5657 12.791 39.6552 13.5537H38.0277C37.9024 13.013 37.5963 12.6353 37.1093 12.4204C36.8371 12.3022 36.5346 12.2432 36.2016 12.2432C35.5642 12.2432 35.0396 12.4849 34.6278 12.9683C34.2196 13.4481 34.0155 14.1714 34.0155 15.1382C34.0155 16.1121 34.2375 16.8014 34.6815 17.2061C35.1256 17.6107 35.6304 17.813 36.1962 17.813C36.7512 17.813 37.206 17.6536 37.5604 17.335C37.9149 17.0127 38.1334 16.592 38.2157 16.0728H36.3842V14.7515H39.682V19H38.5863L38.4198 18.0117C38.1011 18.3877 37.8147 18.6527 37.5604 18.8066ZM44.0788 15.8955H42.3708V19H40.7541V11.083H44.6374C45.1924 11.0938 45.6185 11.1618 45.9157 11.2871C46.2165 11.4124 46.4707 11.5968 46.6784 11.8403C46.8503 12.0409 46.9864 12.2629 47.0866 12.5063C47.1869 12.7498 47.237 13.0273 47.237 13.3389C47.237 13.7148 47.1421 14.0854 46.9523 14.4507C46.7626 14.8123 46.4493 15.0684 46.0124 15.2188C46.3776 15.3656 46.6354 15.575 46.7858 15.8472C46.9398 16.1157 47.0168 16.5275 47.0168 17.0825V17.6143C47.0168 17.9759 47.0311 18.2212 47.0598 18.3501C47.1027 18.5542 47.203 18.7046 47.3605 18.8013V19H45.5397C45.4896 18.8245 45.4538 18.6831 45.4323 18.5757C45.3894 18.3537 45.3661 18.1263 45.3625 17.8936L45.3518 17.1577C45.3446 16.6528 45.2515 16.3162 45.0725 16.1479C44.897 15.9797 44.5658 15.8955 44.0788 15.8955ZM45.0832 14.4561C45.4126 14.3057 45.5773 14.0085 45.5773 13.5645C45.5773 13.0846 45.418 12.7624 45.0993 12.5977C44.9203 12.5046 44.6517 12.458 44.2937 12.458H42.3708V14.585H44.2453C44.6177 14.585 44.897 14.542 45.0832 14.4561ZM53.6265 15.541H49.7808V17.5767H54.1636V19H48.1641V11.083H53.9702V12.4849H49.7808V14.166H53.6265V15.541ZM60.4134 15.541H56.5677V17.5767H60.9505V19H54.951V11.083H60.7571V12.4849H56.5677V14.166H60.4134V15.541ZM69.9535 11.083V12.4849H67.5849V19H65.9198V12.4849H63.5404V11.083H69.9535ZM73.6843 19.2202C72.5528 19.2202 71.688 18.9123 71.09 18.2964C70.288 17.5409 69.8869 16.4523 69.8869 15.0308C69.8869 13.5806 70.288 12.492 71.09 11.7651C71.688 11.1493 72.5528 10.8413 73.6843 10.8413C74.8158 10.8413 75.6805 11.1493 76.2785 11.7651C77.077 12.492 77.4763 13.5806 77.4763 15.0308C77.4763 16.4523 77.077 17.5409 76.2785 18.2964C75.6805 18.9123 74.8158 19.2202 73.6843 19.2202ZM75.2473 17.0933C75.6304 16.6099 75.822 15.9224 75.822 15.0308C75.822 14.1427 75.6286 13.457 75.2419 12.9736C74.8588 12.4867 74.3395 12.2432 73.6843 12.2432C73.029 12.2432 72.5062 12.4849 72.1159 12.9683C71.7256 13.4517 71.5305 14.1392 71.5305 15.0308C71.5305 15.9224 71.7256 16.6099 72.1159 17.0933C72.5062 17.5767 73.029 17.8184 73.6843 17.8184C74.3395 17.8184 74.8605 17.5767 75.2473 17.0933ZM86.4578 11.083V12.4849H84.0892V19H82.4241V12.4849H80.0447V11.083H86.4578ZM91.6012 19V15.4658H88.5074V19H86.8692V11.083H88.5074V14.1016H91.6012V11.083H93.2447V19H91.6012ZM99.7899 15.541H95.9442V17.5767H100.327V19H94.3275V11.083H100.134V12.4849H95.9442V14.166H99.7899V15.541ZM107.805 17.3726H104.888L104.34 19H102.611L105.436 11.083H107.305L110.109 19H108.315L107.805 17.3726ZM107.343 16.0083L106.354 12.8931L105.334 16.0083H107.343ZM116.971 19H115.317L112.083 13.3765V19H110.542V11.083H112.277L115.429 16.6099V11.083H116.971V19ZM122.603 17.3726H119.687L119.139 19H117.409L120.234 11.083H122.104L124.907 19H123.113L122.603 17.3726ZM122.141 16.0083L121.153 12.8931L120.132 16.0083H122.141ZM125.367 11.083H127.021V17.5767H130.942V19H125.367V11.083ZM136.924 11.083L134.276 16.0244V19H132.621V16.0244L129.882 11.083H131.832L133.475 14.5312L135.049 11.083H136.924ZM143.071 11.083V12.4849H140.703V19H139.038V12.4849H136.658V11.083H143.071ZM143.365 11.083H145.008V19H143.365V11.083ZM151.591 18.4092C151 18.9499 150.245 19.2202 149.324 19.2202C148.186 19.2202 147.29 18.855 146.639 18.1245C145.987 17.3905 145.661 16.3843 145.661 15.106C145.661 13.7238 146.032 12.6585 146.773 11.9102C147.418 11.2585 148.238 10.9326 149.233 10.9326C150.565 10.9326 151.539 11.3695 152.155 12.2432C152.495 12.7337 152.678 13.2261 152.703 13.7202H151.048C150.941 13.3407 150.803 13.0542 150.635 12.8608C150.334 12.5171 149.888 12.3452 149.297 12.3452C148.696 12.3452 148.221 12.5887 147.874 13.0757C147.527 13.5591 147.353 14.2448 147.353 15.1328C147.353 16.0208 147.536 16.6868 147.901 17.1309C148.27 17.5713 148.737 17.7915 149.303 17.7915C149.883 17.7915 150.325 17.6017 150.629 17.2222C150.798 17.0181 150.937 16.7119 151.048 16.3037H152.687C152.543 17.1667 152.178 17.8685 151.591 18.4092ZM156.278 17.856C156.668 17.856 156.985 17.813 157.228 17.7271C157.69 17.5623 157.921 17.2562 157.921 16.8086C157.921 16.5472 157.807 16.3449 157.578 16.2017C157.348 16.062 156.989 15.9385 156.498 15.8311L155.66 15.6431C154.836 15.4569 154.267 15.2546 153.952 15.0361C153.419 14.6709 153.152 14.0998 153.152 13.3228C153.152 12.6138 153.41 12.0247 153.925 11.5557C154.441 11.0866 155.198 10.8521 156.197 10.8521C157.031 10.8521 157.742 11.0741 158.329 11.5181C158.92 11.9585 159.23 12.5994 159.259 13.4409H157.669C157.64 12.9647 157.433 12.6263 157.046 12.4258C156.788 12.2933 156.468 12.2271 156.084 12.2271C155.658 12.2271 155.318 12.313 155.064 12.4849C154.81 12.6567 154.683 12.8966 154.683 13.2046C154.683 13.4875 154.808 13.6987 155.059 13.8384C155.22 13.9315 155.563 14.0407 156.09 14.166L157.454 14.4937C158.052 14.6369 158.503 14.8285 158.808 15.0684C159.28 15.4408 159.517 15.9797 159.517 16.6851C159.517 17.4084 159.239 18.0099 158.684 18.4897C158.133 18.966 157.352 19.2041 156.342 19.2041C155.311 19.2041 154.5 18.9696 153.909 18.5005C153.318 18.0278 153.023 17.3797 153.023 16.5562H154.602C154.652 16.9178 154.751 17.1882 154.897 17.3672C155.166 17.693 155.626 17.856 156.278 17.856ZM168.289 18.4092C167.698 18.9499 166.942 19.2202 166.022 19.2202C164.883 19.2202 163.988 18.855 163.336 18.1245C162.685 17.3905 162.359 16.3843 162.359 15.106C162.359 13.7238 162.729 12.6585 163.471 11.9102C164.115 11.2585 164.935 10.9326 165.931 10.9326C167.263 10.9326 168.237 11.3695 168.853 12.2432C169.193 12.7337 169.375 13.2261 169.4 13.7202H167.746C167.639 13.3407 167.501 13.0542 167.333 12.8608C167.032 12.5171 166.586 12.3452 165.995 12.3452C165.394 12.3452 164.919 12.5887 164.572 13.0757C164.224 13.5591 164.051 14.2448 164.051 15.1328C164.051 16.0208 164.233 16.6868 164.599 17.1309C164.967 17.5713 165.435 17.7915 166 17.7915C166.581 17.7915 167.023 17.6017 167.327 17.2222C167.495 17.0181 167.635 16.7119 167.746 16.3037H169.384C169.241 17.1667 168.876 17.8685 168.289 18.4092ZM173.604 19.2202C172.472 19.2202 171.608 18.9123 171.01 18.2964C170.207 17.5409 169.806 16.4523 169.806 15.0308C169.806 13.5806 170.207 12.492 171.01 11.7651C171.608 11.1493 172.472 10.8413 173.604 10.8413C174.735 10.8413 175.6 11.1493 176.198 11.7651C176.997 12.492 177.396 13.5806 177.396 15.0308C177.396 16.4523 176.997 17.5409 176.198 18.2964C175.6 18.9123 174.735 19.2202 173.604 19.2202ZM175.167 17.0933C175.55 16.6099 175.742 15.9224 175.742 15.0308C175.742 14.1427 175.548 13.457 175.161 12.9736C174.778 12.4867 174.259 12.2432 173.604 12.2432C172.949 12.2432 172.426 12.4849 172.035 12.9683C171.645 13.4517 171.45 14.1392 171.45 15.0308C171.45 15.9224 171.645 16.6099 172.035 17.0933C172.426 17.5767 172.949 17.8184 173.604 17.8184C174.259 17.8184 174.78 17.5767 175.167 17.0933ZM181.615 19.2202C180.484 19.2202 179.619 18.9123 179.021 18.2964C178.219 17.5409 177.818 16.4523 177.818 15.0308C177.818 13.5806 178.219 12.492 179.021 11.7651C179.619 11.1493 180.484 10.8413 181.615 10.8413C182.747 10.8413 183.612 11.1493 184.21 11.7651C185.008 12.492 185.407 13.5806 185.407 15.0308C185.407 16.4523 185.008 17.5409 184.21 18.2964C183.612 18.9123 182.747 19.2202 181.615 19.2202ZM183.178 17.0933C183.561 16.6099 183.753 15.9224 183.753 15.0308C183.753 14.1427 183.56 13.457 183.173 12.9736C182.79 12.4867 182.271 12.2432 181.615 12.2432C180.96 12.2432 180.437 12.4849 180.047 12.9683C179.657 13.4517 179.462 14.1392 179.462 15.0308C179.462 15.9224 179.657 16.6099 180.047 17.0933C180.437 17.5767 180.96 17.8184 181.615 17.8184C182.271 17.8184 182.792 17.5767 183.178 17.0933ZM193.14 19H191.013L188.569 15.541L187.779 16.3521V19H186.152V11.083H187.779V14.3433L190.835 11.083H192.973L189.729 14.3433L193.14 19ZM193.395 11.083H195.039V19H193.395V11.083ZM201.546 15.541H197.701V17.5767H202.083V19H196.084V11.083H201.89V12.4849H197.701V14.166H201.546V15.541ZM205.696 17.856C206.086 17.856 206.403 17.813 206.647 17.7271C207.109 17.5623 207.34 17.2562 207.34 16.8086C207.34 16.5472 207.225 16.3449 206.996 16.2017C206.767 16.062 206.407 15.9385 205.916 15.8311L205.078 15.6431C204.255 15.4569 203.686 15.2546 203.37 15.0361C202.837 14.6709 202.57 14.0998 202.57 13.3228C202.57 12.6138 202.828 12.0247 203.344 11.5557C203.859 11.0866 204.617 10.8521 205.616 10.8521C206.45 10.8521 207.161 11.0741 207.748 11.5181C208.339 11.9585 208.648 12.5994 208.677 13.4409H207.087C207.059 12.9647 206.851 12.6263 206.464 12.4258C206.206 12.2933 205.886 12.2271 205.503 12.2271C205.077 12.2271 204.736 12.313 204.482 12.4849C204.228 12.6567 204.101 12.8966 204.101 13.2046C204.101 13.4875 204.226 13.6987 204.477 13.8384C204.638 13.9315 204.982 14.0407 205.508 14.166L206.872 14.4937C207.47 14.6369 207.922 14.8285 208.226 15.0684C208.699 15.4408 208.935 15.9797 208.935 16.6851C208.935 17.4084 208.657 18.0099 208.102 18.4897C207.551 18.966 206.77 19.2041 205.761 19.2041C204.729 19.2041 203.918 18.9696 203.327 18.5005C202.737 18.0278 202.441 17.3797 202.441 16.5562H204.02C204.07 16.9178 204.169 17.1882 204.316 17.3672C204.584 17.693 205.044 17.856 205.696 17.856ZM209.459 17.3994H211.087V19H209.459V17.3994Z" fill="white"/>
</svg>
